
Seven.Swords.aka.Qi jian.2005.DVDRiP.XviD.OPTIONAL-NORDIC_SUB-Zen_Bud

Format                           : AVI
File size                        : 1.37 GiB
Duration                         : 2h 26mn
Overall bit rate                 : 1 339 Kbps

Video

Format                           : MPEG-4 Visual
Codec ID/Hint                    : XviD
Duration                         : 2h 26mn
Bit rate                         : 1 214 Kbps
Width                            : 720 pixels
Height                           : 436 pixels
Display aspect ratio             : 2.35:1
Stream size                      : 1.25 GiB (91%)
Writing library                  : XviD 1.1.2 (UTC 2006-11-01)

Audio

Format                           : MPEG Audio
Codec ID/Hint                    : MP3
Duration                         : 2h 26mn
Bit rate                         : 112 Kbps
Channel(s)                       : 2 channels
Sampling rate                    : 48.0 KHz
Stream size                      : 118 MiB (8%)
Writing library                  : LAME3.98
Language                         : Chinese

ID                               : 3
Language                         : Danish


ID                               : 4
Language                         : Swedish


ID                               : 5
Language                         : Norwegian


ID                               : 6
Language                         : Finnish



Seven warriors come together to protect a village from a diabolical General. 